<?xml version="1.0" encoding="utf-8" ?>
<svg baseProfile="full" height="307.14px" version="1.1" viewBox="0 0 675.59 307.14" width="675.59px" xmlns="http://www.w3.org/2000/svg" xmlns:ev="http://www.w3.org/2001/xml-events" xmlns:xlink="http://www.w3.org/1999/xlink"><defs /><rect fill="white" height="307.14" width="675.59" x="0" y="0" /><polygon fill="none" points="675.59,307.14 0.0,307.14 0.0,0.0 675.59,0.0 675.59,307.14" stroke="#ff0000" stroke-dasharray="5,5" stroke-width="2" /><polygon fill="#e0e0e0" points="134.26,113.16 89.67999999999999,113.16 89.67999999999999,69.15 134.26,69.15 134.26,113.16" stroke="#333333" stroke-width="2" /><polygon fill="#e0e0e0" points="255.58,35.370000000000005 199.94,35.370000000000005 199.94,4.439999999999998 255.57999999999998,4.439999999999998 255.57999999999998,35.370000000000005 255.58,35.370000000000005" stroke="#333333" stroke-width="2" /><polygon fill="#e0e0e0" points="390.26,29.579999999999984 335.05,29.579999999999984 335.05,5.110000000000014 390.26,5.110000000000014 390.26,29.579999999999984" stroke="#333333" stroke-width="2" /><polygon fill="#e0e0e0" points="497.27,30.720000000000027 433.72999999999996,30.720000000000027 433.72999999999996,4.639999999999986 497.27,4.639999999999986 497.27,30.720000000000027" stroke="#333333" stroke-width="2" /><polygon fill="#e0e0e0" points="554.69,131.79 515.6700000000001,131.79 515.6700000000001,92.76999999999998 554.69,92.76999999999998 554.69,131.79" stroke="#333333" stroke-width="2" /><polygon fill="#e0e0e0" points="671.04,175.3 644.13,175.3 644.13,125.03 671.04,125.03 671.04,175.3" stroke="#333333" stroke-width="2" /><polygon fill="#e0e0e0" points="246.32,200.36 197.23,200.36 197.23,151.27 246.32,151.27 246.32,200.36" stroke="#333333" stroke-width="2" /><polygon fill="#e0e0e0" points="436.34,177.02 386.21,177.02 386.21,129.01000000000002 436.34,129.01000000000002 436.34,177.02" stroke="#333333" stroke-width="2" /><polygon fill="#e0e0e0" points="674.74,302.57 573.62,302.57 573.62,204.44 674.74,204.44 674.74,302.57" stroke="#333333" stroke-width="2" /><polygon fill="#e0e0e0" points="574.69,302.55 548.75,302.55 548.75,274.91 574.69,274.91 574.69,302.55" stroke="#333333" stroke-width="2" /><polygon fill="#e0e0e0" points="474.93,306.22 441.46000000000004,306.22 441.46000000000004,287.15000000000003 474.93000000000006,287.15000000000003 474.93000000000006,306.22 474.93,306.22" stroke="#333333" stroke-width="2" /><polygon fill="#e0e0e0" points="372.62,300.95 298.11,300.95 298.11,275.66999999999996 372.62,275.66999999999996 372.62,300.94999999999993 372.62,300.95" stroke="#333333" stroke-width="2" /><polygon fill="#e0e0e0" points="117.56,306.49 62.21,306.49 62.21,281.92 117.56,281.92 117.56,306.49" stroke="#333333" stroke-width="2" /><polygon fill="rgb(100, 150, 220)" fill-opacity="0.4" points="134.25999999999996,109.45307178575752 134.26,109.4768065068493 134.26000000000002,109.50054162013618 134.26,113.13619870104822 -4.944733385497488e-15,126.3502163400357 2.738325311681564e-14,126.38757382561454 1.609657819756596e-14,221.17267937124197 -3.38493889126027e-14,221.21433119175776 197.28482946470598,151.27 246.28890060104902,151.27 246.31999999999994,151.27 246.32,151.28540402584753 246.32,162.56681979474178 246.32,162.58344648648648 246.32,162.60007512987 246.32,167.1025020372438 246.32,167.11967770232954 246.32,167.13685550949862 246.32,168.9854505828404 246.32,169.00286392313478 246.32,169.02027948818932 246.32,176.97421471940794 246.32,176.9927002176809 246.32000000000002,177.01118831656277 246.32,184.00942478681293 246.32000000000002,184.02893994612583 246.32,184.04845807298275 246.32,196.04525926257386 246.32000000000002,196.0667215972112 246.32,196.08818761334066 246.32,200.3377865292586 126.65209133744118,307.14 126.70107174884602,307.14 285.9000870756209,307.14 285.92505735983195,307.14 298.131349699091,275.66999999999996 306.7044890253948,275.66999999999996 306.72521308366913,275.66999999999996 306.74593572947435,275.66999999999996 372.2874524390823,275.66999999999996 372.3060222801612,275.66999999999996 372.32459216736765,275.66999999999996 372.60142932904625,275.66999999999996 372.62,275.66999999999996 373.08579332617705,307.14 410.42615854872986,307.14 386.21,177.01999999999998 386.21,176.97169006418576 386.21,139.0638524388658 386.21,139.04738595018185 386.21,139.03092942317502 386.21,134.7355065375694 386.21,134.72154352085073 386.21,134.70758820648166 386.21,129.02101155932687 386.21,129.01000000000002 386.21457477150216,129.01000000000002 388.92645097829256,129.01000000000002 388.9312704652669,129.01000000000002 388.9360904200363,129.01000000000002 390.7574557943853,129.01000000000002 390.7624615774791,129.01000000000002 390.76746789345117,129.01000000000002 399.73324160714077,129.01000000000002 399.73940933118826,129.01000000000002 399.7455779957046,129.01000000000002 402.7999155208438,129.01000000000002 402.80657492354743,129.01000000000002 402.8132354464283,129.01000000000002 407.360051931351,129.01000000000002 407.36753163663735,129.01000000000002 407.3750127750173,129.01000000000002 407.55991027354173,129.01000000000002 407.5674283697954,129.01000000000002 407.5749479142046,129.01000000000002 407.70289452623274,129.01000000000002 407.71044021415827,129.01000000000002 407.71798736108775,129.01000000000002 413.17425683965934,129.01000000000002 413.18293710453736,129.01000000000002 413.1916192913884,129.01000000000002 424.782776375482,129.01000000000002 424.79437229437235,129.01000000000002 424.8059714713009,129.01000000000002 424.8887422482142,129.01000000000002 424.900367965368,129.01000000000002 424.9119969552518,129.01000000000002 425.9127547590584,129.01000000000002 425.9246714023616,129.01000000000002 425.93659146289076,129.01000000000002 436.3248198701104,129.01000000000002 573.62,209.73494422671098 573.62,209.70754304776182 573.62,204.46679534654817 573.62,204.44 573.6676820405444,204.44 674.6474320409008,204.44 675.0,204.53763864277744 675.0,204.50283868044494 675.0,184.9391558604679 675.0,184.9057016743881 644.13,175.2699336874774 644.13,168.67244267084723 515.6700000000001,131.79 515.6700000000001,131.7742345752458 515.6700000000001,131.2914844075797 515.6700000000001,131.27574740898223 515.6700000000001,131.2600113021785 515.6700000000001,122.97621683279857 515.6700000000001,122.96090367643077 515.6700000000001,122.94559121303209 515.6700000000001,108.62940433563244 515.6700000000001,108.61459927771497 515.6700000000001,108.59979459816876 515.6700000000001,106.9654025362075 515.6700000000001,106.95063812117994 515.6700000000001,106.93587404975548 515.6700000000001,92.78457229507515 515.6700000000001,92.76999999999998 516.4403842507197,92.76999999999998 553.466458726528,92.76999999999998 554.69,92.76999999999998 675.0,94.54391518932647 675.0,0.20690674718753144 675.0,0.17376223043947903 675.0,0.1406157613406549 674.8875300282713,0.13999999999998636 562.9735300979677,0.13999999999998636 497.27,30.720000000000027 497.2367551614455,30.720000000000027 458.40436664081153,30.720000000000027 458.3852577319587,30.720000000000027 458.3661545204543,30.720000000000027 433.7427807790895,30.720000000000027 461.76775978407557,4.639999999999986 433.72999999999996,30.70811182165943 433.72999999999996,4.657803738915163 433.72999999999996,4.639999999999986 437.0757179180614,0.13999999999998636 400.1418007515779,0.13999999999998636 390.26,29.579999999999984 390.2532788681837,29.579999999999984 384.4263321136844,29.579999999999984 384.4199458122276,29.579999999999984 384.4135598155967,29.579999999999984 345.1315917124392,29.579999999999984 345.1245258569914,29.579999999999984 345.117459419704,29.579999999999984 335.0580632193094,29.579999999999984 335.05,29.579999999999984 318.00841369221183,0.13999999999998636 249.85463236867213,0.13999999999998636 249.82957924263673,0.13999999999998636 255.57999999999998,4.457838597970294 255.57999999999998,32.41906568856814 255.57999999999998,32.43340468070096 255.57999999999998,32.44774223006948 255.57999999999998,35.355949011572136 255.57999999999998,35.36999999999995 255.5505660970515,35.370000000000005 199.9983835107204,35.370000000000005 199.94,35.370000000000005 90.17497328204504,0.13999999999998636 0.7363499455587059,0.13999999999998636 0.5755555555555945,0.13999999999998636 0.4146289024564619,0.13999999999998636 0.16126769534409344,0.13999999999998636 1.8279692908202102e-13,0.13999999999998636 7.841396522059485e-15,0.1791814322269829 2.522413841373283e-14,57.23809837705011 2.295629404259365e-14,57.275388139475695 134.26,69.17375819756018 134.26,72.44212374474114 134.25999999999996,72.46582833904108 134.26,72.48953258071748" stroke="rgb(100, 150, 220)" stroke-opacity="0.8" stroke-width="2" /><line opacity="0.6" stroke="#2196F3" stroke-width="3" x1="10" x2="80" y1="300.0" y2="290.0" /><line opacity="0.6" stroke="#2196F3" stroke-width="3" x1="80" x2="180" y1="290.0" y2="250.0" /><line opacity="0.6" stroke="#2196F3" stroke-width="3" x1="180" x2="280" y1="250.0" y2="230.0" /><line opacity="0.6" stroke="#2196F3" stroke-width="3" x1="280" x2="400" y1="230.0" y2="230.0" /><line opacity="0.6" stroke="#2196F3" stroke-width="3" x1="400" x2="490" y1="230.0" y2="240.0" /><line opacity="0.6" stroke="#2196F3" stroke-width="3" x1="490" x2="590" y1="240.0" y2="250.0" /><line opacity="0.6" stroke="#2196F3" stroke-width="3" x1="590" x2="620" y1="250.0" y2="170.0" /><line opacity="0.6" stroke="#2196F3" stroke-width="3" x1="620" x2="570" y1="170.0" y2="140.0" /><line opacity="0.6" stroke="#2196F3" stroke-width="3" x1="570" x2="510" y1="140.0" y2="110.0" /><line opacity="0.6" stroke="#2196F3" stroke-width="3" x1="510" x2="370" y1="110.0" y2="90.0" /><line opacity="0.6" stroke="#2196F3" stroke-width="3" x1="370" x2="240" y1="90.0" y2="70.0" /><line opacity="0.6" stroke="#2196F3" stroke-width="3" x1="240" x2="200" y1="70.0" y2="20.0" /><circle cx="10" cy="300.0" fill="#90CAF9" r="5" stroke="white" stroke-width="2" /><circle cx="80" cy="290.0" fill="#90CAF9" r="5" stroke="white" stroke-width="2" /><circle cx="180" cy="250.0" fill="#90CAF9" r="5" stroke="white" stroke-width="2" /><circle cx="280" cy="230.0" fill="#90CAF9" r="5" stroke="white" stroke-width="2" /><circle cx="400" cy="230.0" fill="#90CAF9" r="5" stroke="white" stroke-width="2" /><circle cx="490" cy="240.0" fill="#90CAF9" r="5" stroke="white" stroke-width="2" /><circle cx="590" cy="250.0" fill="#90CAF9" r="5" stroke="white" stroke-width="2" /><circle cx="620" cy="170.0" fill="#90CAF9" r="5" stroke="white" stroke-width="2" /><circle cx="570" cy="140.0" fill="#90CAF9" r="5" stroke="white" stroke-width="2" /><circle cx="510" cy="110.0" fill="#90CAF9" r="5" stroke="white" stroke-width="2" /><circle cx="370" cy="90.0" fill="#4CAF50" r="8" stroke="white" stroke-width="3" /><circle cx="240" cy="70.0" fill="#E0E0E0" r="5" stroke="white" stroke-width="2" /><circle cx="200" cy="20.0" fill="#E0E0E0" r="5" stroke="white" stroke-width="2" /><text fill="#333333" font-family="Arial, sans-serif" font-size="16px" font-weight="bold" x="10" y="20">Path: path1 | Point 11/13</text><text fill="#666666" font-family="Arial, sans-serif" font-size="14px" x="10" y="40">Position: (370.0, 217.1)</text></svg>